<?plantuml 1.2026.2?><svg xmlns="http://www.w3.org/2000/svg" xmlns:xlink="http://www.w3.org/1999/xlink" contentStyleType="text/css" data-diagram-type="SEQUENCE" height="1744px" preserveAspectRatio="none" style="width:1476px;height:1744px;background:#FEFEFE;" version="1.1" viewBox="0 0 1476 1744" width="1476px" zoomAndPan="magnify"><defs/><g><rect fill="#FEFEFE" height="1744" style="stroke:none;stroke-width:1;" width="1476" x="0" y="0"/><rect fill="none" height="46.2656" style="stroke:#000000;stroke-width:1.5;" width="453.5005" x="309.1133" y="648.6875"/><rect fill="none" height="183.6016" style="stroke:#000000;stroke-width:1.5;" width="1174.6196" x="211.458" y="1346.7422"/><g class="participant-lifeline" data-entity-uid="part1" data-qualified-name="admin" id="part1-lifeline"><g><title>Administrador</title><rect fill="#000000" fill-opacity="0.00000" height="1582.5781" width="8" x="53.54" y="81.2969"/><line style="stroke:#181818;stroke-width:0.5;stroke-dasharray:5,5;" x1="57" x2="57" y1="81.2969" y2="1663.875"/></g></g><g class="participant-lifeline" data-entity-uid="part2" data-qualified-name="vista" id="part2-lifeline"><g><title>IU_Materias</title><rect fill="#000000" fill-opacity="0.00000" height="1582.5781" width="8" x="261.2856" y="81.2969"/><line style="stroke:#181818;stroke-width:0.5;stroke-dasharray:5,5;" x1="264.458" x2="264.458" y1="81.2969" y2="1663.875"/></g></g><g class="participant-lifeline" data-entity-uid="part3" data-qualified-name="form" id="part3-lifeline"><g><title>IU_MateriaForm</title><rect fill="#000000" fill-opacity="0.00000" height="1582.5781" width="8" x="373.2998" y="81.2969"/><line style="stroke:#181818;stroke-width:0.5;stroke-dasharray:5,5;" x1="377.1133" x2="377.1133" y1="81.2969" y2="1663.875"/></g></g><g class="participant-lifeline" data-entity-uid="part4" data-qualified-name="ctr" id="part4-lifeline"><g><title>CTR_Materia</title><rect fill="#000000" fill-opacity="0.00000" height="1582.5781" width="8" x="701.5938" y="81.2969"/><line style="stroke:#181818;stroke-width:0.5;stroke-dasharray:5,5;" x1="705.5737" x2="705.5737" y1="81.2969" y2="1663.875"/></g></g><g class="participant-lifeline" data-entity-uid="part5" data-qualified-name="materia" id="part5-lifeline"><g><title>CE_Materia</title><rect fill="#000000" fill-opacity="0.00000" height="1582.5781" width="8" x="1119.6094" y="81.2969"/><line style="stroke:#181818;stroke-width:0.5;stroke-dasharray:5,5;" x1="1123.3062" x2="1123.3062" y1="81.2969" y2="1663.875"/></g></g><g class="participant-lifeline" data-entity-uid="part6" data-qualified-name="carrera" id="part6-lifeline"><g><title>CE_Carrera</title><rect fill="#000000" fill-opacity="0.00000" height="1582.5781" width="8" x="1214.1304" y="81.2969"/><line style="stroke:#181818;stroke-width:0.5;stroke-dasharray:5,5;" x1="1217.9126" x2="1217.9126" y1="81.2969" y2="1663.875"/></g></g><g class="participant-lifeline" data-entity-uid="part7" data-qualified-name="post" id="part7-lifeline"><g><title>CE_Postulante</title><rect fill="#000000" fill-opacity="0.00000" height="1582.5781" width="8" x="1319.2129" y="81.2969"/><line style="stroke:#181818;stroke-width:0.5;stroke-dasharray:5,5;" x1="1322.3481" x2="1322.3481" y1="81.2969" y2="1663.875"/></g></g><g class="participant-lifeline" data-entity-uid="part8" data-qualified-name="bitacora" id="part8-lifeline"><g><title>CE_Bitacora</title><rect fill="#000000" fill-opacity="0.00000" height="1582.5781" width="8" x="1426.9683" y="81.2969"/><line style="stroke:#181818;stroke-width:0.5;stroke-dasharray:5,5;" x1="1430.0776" x2="1430.0776" y1="81.2969" y2="1663.875"/></g></g><g class="participant participant-head" data-entity-uid="part1" data-qualified-name="admin" id="part1-head"><text fill="#000000" font-family="Consolas" font-size="14" lengthAdjust="spacing" textLength="99.0801" x="5" y="77.9951">Administrador</text><ellipse cx="57.54" cy="13.5" fill="#E2E2F0" rx="8" ry="8" style="stroke:#181818;stroke-width:0.5;"/><path d="M57.54,21.5 L57.54,48.5 M44.54,29.5 L70.54,29.5 M57.54,48.5 L44.54,63.5 M57.54,48.5 L70.54,63.5" fill="none" style="stroke:#181818;stroke-width:0.5;"/></g><g class="participant participant-tail" data-entity-uid="part1" data-qualified-name="admin" id="part1-tail"><text fill="#000000" font-family="Consolas" font-size="14" lengthAdjust="spacing" textLength="99.0801" x="5" y="1675.8701">Administrador</text><ellipse cx="57.54" cy="1687.6719" fill="#E2E2F0" rx="8" ry="8" style="stroke:#181818;stroke-width:0.5;"/><path d="M57.54,1695.6719 L57.54,1722.6719 M44.54,1703.6719 L70.54,1703.6719 M57.54,1722.6719 L44.54,1737.6719 M57.54,1722.6719 L70.54,1737.6719" fill="none" style="stroke:#181818;stroke-width:0.5;"/></g><g class="participant participant-head" data-entity-uid="part2" data-qualified-name="vista" id="part2-head"><text fill="#000000" font-family="Consolas" font-size="14" lengthAdjust="spacing" textLength="81.6553" x="221.458" y="77.9951">IU_Materias</text><path d="M244.7856,37 L244.7856,61 M244.7856,49 L261.7856,49" fill="none" style="stroke:#181818;stroke-width:0.5;"/><ellipse cx="273.7856" cy="49" fill="#E2E2F0" rx="12" ry="12" style="stroke:#181818;stroke-width:0.5;"/></g><g class="participant participant-tail" data-entity-uid="part2" data-qualified-name="vista" id="part2-tail"><text fill="#000000" font-family="Consolas" font-size="14" lengthAdjust="spacing" textLength="81.6553" x="221.458" y="1675.8701">IU_Materias</text><path d="M244.7856,1683.1719 L244.7856,1707.1719 M244.7856,1695.1719 L261.7856,1695.1719" fill="none" style="stroke:#181818;stroke-width:0.5;"/><ellipse cx="273.7856" cy="1695.1719" fill="#E2E2F0" rx="12" ry="12" style="stroke:#181818;stroke-width:0.5;"/></g><g class="participant participant-head" data-entity-uid="part3" data-qualified-name="form" id="part3-head"><text fill="#000000" font-family="Consolas" font-size="14" lengthAdjust="spacing" textLength="110.373" x="319.1133" y="77.9951">IU_MateriaForm</text><path d="M356.7998,37 L356.7998,61 M356.7998,49 L373.7998,49" fill="none" style="stroke:#181818;stroke-width:0.5;"/><ellipse cx="385.7998" cy="49" fill="#E2E2F0" rx="12" ry="12" style="stroke:#181818;stroke-width:0.5;"/></g><g class="participant participant-tail" data-entity-uid="part3" data-qualified-name="form" id="part3-tail"><text fill="#000000" font-family="Consolas" font-size="14" lengthAdjust="spacing" textLength="110.373" x="319.1133" y="1675.8701">IU_MateriaForm</text><path d="M356.7998,1683.1719 L356.7998,1707.1719 M356.7998,1695.1719 L373.7998,1695.1719" fill="none" style="stroke:#181818;stroke-width:0.5;"/><ellipse cx="385.7998" cy="1695.1719" fill="#E2E2F0" rx="12" ry="12" style="stroke:#181818;stroke-width:0.5;"/></g><g class="participant participant-head" data-entity-uid="part4" data-qualified-name="ctr" id="part4-head"><text fill="#000000" font-family="Consolas" font-size="14" lengthAdjust="spacing" textLength="88.04" x="658.5737" y="77.9951">CTR_Materia</text><ellipse cx="705.5938" cy="49" fill="#E2E2F0" rx="12" ry="12" style="stroke:#181818;stroke-width:0.5;"/><polygon fill="#181818" points="701.5938,37,707.5938,32,705.5938,37,707.5938,42,701.5938,37" style="stroke:#181818;stroke-width:1;"/></g><g class="participant participant-tail" data-entity-uid="part4" data-qualified-name="ctr" id="part4-tail"><text fill="#000000" font-family="Consolas" font-size="14" lengthAdjust="spacing" textLength="88.04" x="658.5737" y="1675.8701">CTR_Materia</text><ellipse cx="705.5938" cy="1695.1719" fill="#E2E2F0" rx="12" ry="12" style="stroke:#181818;stroke-width:0.5;"/><polygon fill="#181818" points="701.5938,1683.1719,707.5938,1678.1719,705.5938,1683.1719,707.5938,1688.1719,701.5938,1683.1719" style="stroke:#181818;stroke-width:1;"/></g><g class="participant participant-head" data-entity-uid="part5" data-qualified-name="materia" id="part5-head"><text fill="#000000" font-family="Consolas" font-size="14" lengthAdjust="spacing" textLength="78.6064" x="1081.3062" y="77.9951">CE_Materia</text><ellipse cx="1123.6094" cy="49" fill="#E2E2F0" rx="12" ry="12" style="stroke:#181818;stroke-width:0.5;"/><line style="stroke:#181818;stroke-width:0.5;" x1="1111.6094" x2="1135.6094" y1="63" y2="63"/></g><g class="participant participant-tail" data-entity-uid="part5" data-qualified-name="materia" id="part5-tail"><text fill="#000000" font-family="Consolas" font-size="14" lengthAdjust="spacing" textLength="78.6064" x="1081.3062" y="1675.8701">CE_Materia</text><ellipse cx="1123.6094" cy="1695.1719" fill="#E2E2F0" rx="12" ry="12" style="stroke:#181818;stroke-width:0.5;"/><line style="stroke:#181818;stroke-width:0.5;" x1="1111.6094" x2="1135.6094" y1="1709.1719" y2="1709.1719"/></g><g class="participant participant-head" data-entity-uid="part6" data-qualified-name="carrera" id="part6-head"><text fill="#000000" font-family="Consolas" font-size="14" lengthAdjust="spacing" textLength="78.4355" x="1175.9126" y="77.9951">CE_Carrera</text><ellipse cx="1218.1304" cy="49" fill="#E2E2F0" rx="12" ry="12" style="stroke:#181818;stroke-width:0.5;"/><line style="stroke:#181818;stroke-width:0.5;" x1="1206.1304" x2="1230.1304" y1="63" y2="63"/></g><g class="participant participant-tail" data-entity-uid="part6" data-qualified-name="carrera" id="part6-tail"><text fill="#000000" font-family="Consolas" font-size="14" lengthAdjust="spacing" textLength="78.4355" x="1175.9126" y="1675.8701">CE_Carrera</text><ellipse cx="1218.1304" cy="1695.1719" fill="#E2E2F0" rx="12" ry="12" style="stroke:#181818;stroke-width:0.5;"/><line style="stroke:#181818;stroke-width:0.5;" x1="1206.1304" x2="1230.1304" y1="1709.1719" y2="1709.1719"/></g><g class="participant participant-head" data-entity-uid="part7" data-qualified-name="post" id="part7-head"><text fill="#000000" font-family="Consolas" font-size="14" lengthAdjust="spacing" textLength="99.7295" x="1270.3481" y="77.9951">CE_Postulante</text><ellipse cx="1323.2129" cy="49" fill="#E2E2F0" rx="12" ry="12" style="stroke:#181818;stroke-width:0.5;"/><line style="stroke:#181818;stroke-width:0.5;" x1="1311.2129" x2="1335.2129" y1="63" y2="63"/></g><g class="participant participant-tail" data-entity-uid="part7" data-qualified-name="post" id="part7-tail"><text fill="#000000" font-family="Consolas" font-size="14" lengthAdjust="spacing" textLength="99.7295" x="1270.3481" y="1675.8701">CE_Postulante</text><ellipse cx="1323.2129" cy="1695.1719" fill="#E2E2F0" rx="12" ry="12" style="stroke:#181818;stroke-width:0.5;"/><line style="stroke:#181818;stroke-width:0.5;" x1="1311.2129" x2="1335.2129" y1="1709.1719" y2="1709.1719"/></g><g class="participant participant-head" data-entity-uid="part8" data-qualified-name="bitacora" id="part8-head"><text fill="#000000" font-family="Consolas" font-size="14" lengthAdjust="spacing" textLength="83.7813" x="1386.0776" y="77.9951">CE_Bitacora</text><ellipse cx="1430.9683" cy="49" fill="#E2E2F0" rx="12" ry="12" style="stroke:#181818;stroke-width:0.5;"/><line style="stroke:#181818;stroke-width:0.5;" x1="1418.9683" x2="1442.9683" y1="63" y2="63"/></g><g class="participant participant-tail" data-entity-uid="part8" data-qualified-name="bitacora" id="part8-tail"><text fill="#000000" font-family="Consolas" font-size="14" lengthAdjust="spacing" textLength="83.7813" x="1386.0776" y="1675.8701">CE_Bitacora</text><ellipse cx="1430.9683" cy="1695.1719" fill="#E2E2F0" rx="12" ry="12" style="stroke:#181818;stroke-width:0.5;"/><line style="stroke:#181818;stroke-width:0.5;" x1="1418.9683" x2="1442.9683" y1="1709.1719" y2="1709.1719"/></g><g class="message" data-entity-1="part1" data-entity-2="part2" id="msg1"><polygon fill="#181818" points="253.2856,108.4297,263.2856,112.4297,253.2856,116.4297,257.2856,112.4297" style="stroke:#181818;stroke-width:1;"/><line style="stroke:#181818;stroke-width:1;" x1="57.54" x2="259.2856" y1="112.4297" y2="112.4297"/><text fill="#000000" font-family="Consolas" font-size="13" lengthAdjust="spacing" textLength="167.7178" x="64.54" y="107.3638">accederGestionMaterias()</text></g><g class="message" data-entity-1="part2" data-entity-2="part4" id="msg2"><polygon fill="#181818" points="693.5938,137.5625,703.5938,141.5625,693.5938,145.5625,697.5938,141.5625" style="stroke:#181818;stroke-width:1;"/><line style="stroke:#181818;stroke-width:1;" x1="265.2856" x2="699.5938" y1="141.5625" y2="141.5625"/><text fill="#000000" font-family="Consolas" font-size="13" lengthAdjust="spacing" textLength="162.4111" x="272.2856" y="136.4966">index(paginacion, filtros)</text></g><g class="message" data-entity-1="part4" data-entity-2="part4" id="msg3"><line style="stroke:#181818;stroke-width:1;" x1="705.5938" x2="747.5938" y1="170.6953" y2="170.6953"/><line style="stroke:#181818;stroke-width:1;" x1="747.5938" x2="747.5938" y1="170.6953" y2="183.6953"/><line style="stroke:#181818;stroke-width:1;" x1="706.5938" x2="747.5938" y1="183.6953" y2="183.6953"/><polygon fill="#181818" points="716.5938,179.6953,706.5938,183.6953,716.5938,187.6953,712.5938,183.6953" style="stroke:#181818;stroke-width:1;"/><text fill="#000000" font-family="Consolas" font-size="13" lengthAdjust="spacing" textLength="200.7954" x="712.5938" y="165.6294">autorizar('gestionar_materias')</text></g><g class="message" data-entity-1="part4" data-entity-2="part5" id="msg4"><polygon fill="#181818" points="1111.6094,208.8281,1121.6094,212.8281,1111.6094,216.8281,1115.6094,212.8281" style="stroke:#181818;stroke-width:1;"/><line style="stroke:#181818;stroke-width:1;" x1="705.5938" x2="1117.6094" y1="212.8281" y2="212.8281"/><text fill="#000000" font-family="Consolas" font-size="13" lengthAdjust="spacing" textLength="159.0215" x="712.5938" y="207.7622">listar(paginacion, filtros)</text></g><g class="message" data-entity-1="part5" data-entity-2="part4" id="msg5"><polygon fill="#181818" points="716.5938,237.9609,706.5938,241.9609,716.5938,245.9609,712.5938,241.9609" style="stroke:#181818;stroke-width:1;"/><line style="stroke:#181818;stroke-width:1;stroke-dasharray:2,2;" x1="710.5938" x2="1122.6094" y1="241.9609" y2="241.9609"/><text fill="#000000" font-family="Consolas" font-size="13" lengthAdjust="spacing" textLength="373.6865" x="722.5938" y="236.895">collection(id, sigla, nombre, nivel, tipo, carrera_asociada)</text></g><g class="message" data-entity-1="part4" data-entity-2="part2" id="msg6"><polygon fill="#181818" points="276.2856,267.0938,266.2856,271.0938,276.2856,275.0938,272.2856,271.0938" style="stroke:#181818;stroke-width:1;"/><line style="stroke:#181818;stroke-width:1;stroke-dasharray:2,2;" x1="270.2856" x2="704.5938" y1="271.0938" y2="271.0938"/><text fill="#000000" font-family="Consolas" font-size="13" lengthAdjust="spacing" textLength="170.2251" x="282.2856" y="266.0278">renderizarTabla(materias)</text></g><g class="message" data-entity-1="part2" data-entity-2="part1" id="msg7"><polygon fill="#181818" points="68.54,296.2266,58.54,300.2266,68.54,304.2266,64.54,300.2266" style="stroke:#181818;stroke-width:1;"/><line style="stroke:#181818;stroke-width:1;stroke-dasharray:2,2;" x1="62.54" x2="264.2856" y1="300.2266" y2="300.2266"/><text fill="#000000" font-family="Consolas" font-size="13" lengthAdjust="spacing" textLength="108.1831" x="74.54" y="295.1606">mostrarListado()</text></g><g class="message" data-entity-1="part1" data-entity-2="part2" id="msg8"><polygon fill="#181818" points="253.2856,325.3594,263.2856,329.3594,253.2856,333.3594,257.2856,329.3594" style="stroke:#181818;stroke-width:1;"/><line style="stroke:#181818;stroke-width:1;" x1="57.54" x2="259.2856" y1="329.3594" y2="329.3594"/><text fill="#000000" font-family="Consolas" font-size="13" lengthAdjust="spacing" textLength="93.1455" x="64.54" y="324.2935">crearMateria()</text></g><g class="message" data-entity-1="part2" data-entity-2="part4" id="msg9"><polygon fill="#181818" points="693.5938,354.4922,703.5938,358.4922,693.5938,362.4922,697.5938,358.4922" style="stroke:#181818;stroke-width:1;"/><line style="stroke:#181818;stroke-width:1;" x1="265.2856" x2="699.5938" y1="358.4922" y2="358.4922"/><text fill="#000000" font-family="Consolas" font-size="13" lengthAdjust="spacing" textLength="51.6953" x="272.2856" y="353.4263">create()</text></g><g class="message" data-entity-1="part4" data-entity-2="part6" id="msg10"><polygon fill="#181818" points="1206.1304,383.625,1216.1304,387.625,1206.1304,391.625,1210.1304,387.625" style="stroke:#181818;stroke-width:1;"/><line style="stroke:#181818;stroke-width:1;" x1="705.5938" x2="1212.1304" y1="387.625" y2="387.625"/><text fill="#000000" font-family="Consolas" font-size="13" lengthAdjust="spacing" textLength="98.3633" x="712.5938" y="382.5591">listarCarreras()</text></g><g class="message" data-entity-1="part4" data-entity-2="part5" id="msg11"><polygon fill="#181818" points="1111.6094,412.7578,1121.6094,416.7578,1111.6094,420.7578,1115.6094,416.7578" style="stroke:#181818;stroke-width:1;"/><line style="stroke:#181818;stroke-width:1;" x1="705.5938" x2="1117.6094" y1="416.7578" y2="416.7578"/><text fill="#000000" font-family="Consolas" font-size="13" lengthAdjust="spacing" textLength="130.1777" x="712.5938" y="411.6919">listarMateriasBase()</text></g><g class="message" data-entity-1="part5" data-entity-2="part4" id="msg12"><polygon fill="#181818" points="716.5938,441.8906,706.5938,445.8906,716.5938,449.8906,712.5938,445.8906" style="stroke:#181818;stroke-width:1;"/><line style="stroke:#181818;stroke-width:1;stroke-dasharray:2,2;" x1="710.5938" x2="1122.6094" y1="445.8906" y2="445.8906"/><text fill="#000000" font-family="Consolas" font-size="13" lengthAdjust="spacing" textLength="92.5425" x="722.5938" y="440.8247">materias base</text></g><g class="message" data-entity-1="part4" data-entity-2="part3" id="msg13"><polygon fill="#181818" points="388.2998,471.0234,378.2998,475.0234,388.2998,479.0234,384.2998,475.0234" style="stroke:#181818;stroke-width:1;"/><line style="stroke:#181818;stroke-width:1;stroke-dasharray:2,2;" x1="382.2998" x2="704.5938" y1="475.0234" y2="475.0234"/><text fill="#000000" font-family="Consolas" font-size="13" lengthAdjust="spacing" textLength="304.2939" x="394.2998" y="469.9575">renderizarFormulario(carreras, materias_base)</text></g><g class="message" data-entity-1="part3" data-entity-2="part1" id="msg14"><polygon fill="#181818" points="68.54,500.1563,58.54,504.1563,68.54,508.1563,64.54,504.1563" style="stroke:#181818;stroke-width:1;"/><line style="stroke:#181818;stroke-width:1;stroke-dasharray:2,2;" x1="62.54" x2="376.2998" y1="504.1563" y2="504.1563"/><text fill="#000000" font-family="Consolas" font-size="13" lengthAdjust="spacing" textLength="188.792" x="74.54" y="499.0903">mostrarFormularioCreacion()</text></g><g class="message" data-entity-1="part1" data-entity-2="part3" id="msg15"><polygon fill="#181818" points="365.2998,529.2891,375.2998,533.2891,365.2998,537.2891,369.2998,533.2891" style="stroke:#181818;stroke-width:1;"/><line style="stroke:#181818;stroke-width:1;" x1="57.54" x2="371.2998" y1="533.2891" y2="533.2891"/><text fill="#000000" font-family="Consolas" font-size="13" lengthAdjust="spacing" textLength="124.8394" x="64.54" y="528.2231">enviarDatos(datos)</text></g><g class="message" data-entity-1="part3" data-entity-2="part4" id="msg16"><polygon fill="#181818" points="693.5938,558.4219,703.5938,562.4219,693.5938,566.4219,697.5938,562.4219" style="stroke:#181818;stroke-width:1;"/><line style="stroke:#181818;stroke-width:1;" x1="377.2998" x2="699.5938" y1="562.4219" y2="562.4219"/><text fill="#000000" font-family="Consolas" font-size="13" lengthAdjust="spacing" textLength="93.0122" x="384.2998" y="557.356">store(request)</text></g><g class="message" data-entity-1="part4" data-entity-2="part4" id="msg17"><line style="stroke:#181818;stroke-width:1;" x1="705.5938" x2="747.5938" y1="591.5547" y2="591.5547"/><line style="stroke:#181818;stroke-width:1;" x1="747.5938" x2="747.5938" y1="591.5547" y2="604.5547"/><line style="stroke:#181818;stroke-width:1;" x1="706.5938" x2="747.5938" y1="604.5547" y2="604.5547"/><polygon fill="#181818" points="716.5938,600.5547,706.5938,604.5547,716.5938,608.5547,712.5938,604.5547" style="stroke:#181818;stroke-width:1;"/><text fill="#000000" font-family="Consolas" font-size="13" lengthAdjust="spacing" textLength="404.0156" x="712.5938" y="586.4888">validar(request, sigla, nombre, nivel, tipo, id_carrera, gestion)</text></g><g class="message" data-entity-1="part4" data-entity-2="part5" id="msg18"><polygon fill="#181818" points="1111.6094,629.6875,1121.6094,633.6875,1111.6094,637.6875,1115.6094,633.6875" style="stroke:#181818;stroke-width:1;"/><line style="stroke:#181818;stroke-width:1;" x1="705.5938" x2="1117.6094" y1="633.6875" y2="633.6875"/><text fill="#000000" font-family="Consolas" font-size="13" lengthAdjust="spacing" textLength="136.9126" x="712.5938" y="628.6216">buscarPorSigla(sigla)</text></g><path d="M309.1133,648.6875 L373.5562,648.6875 L373.5562,655.8203 L363.5562,665.8203 L309.1133,665.8203 L309.1133,648.6875" fill="#EEEEEE" style="stroke:#000000;stroke-width:1.5;"/><rect fill="none" height="46.2656" style="stroke:#000000;stroke-width:1.5;" width="453.5005" x="309.1133" y="648.6875"/><text fill="#000000" font-family="Consolas" font-size="13" font-weight="bold" lengthAdjust="spacing" textLength="19.4429" x="324.1133" y="661.7544">alt</text><text fill="#000000" font-family="Consolas" font-size="11" font-weight="bold" lengthAdjust="spacing" textLength="128.4551" x="388.5562" y="660.8979">[si la sigla ya existe]</text><g class="message" data-entity-1="part4" data-entity-2="part3" id="msg19"><polygon fill="#181818" points="388.2998,682.9531,378.2998,686.9531,388.2998,690.9531,384.2998,686.9531" style="stroke:#181818;stroke-width:1;"/><line style="stroke:#181818;stroke-width:1;stroke-dasharray:2,2;" x1="382.2998" x2="704.5938" y1="686.9531" y2="686.9531"/><text fill="#000000" font-family="Consolas" font-size="13" lengthAdjust="spacing" textLength="226.1416" x="394.2998" y="681.8872">error("La sigla ya est&#225; registrada")</text></g><g class="message" data-entity-1="part4" data-entity-2="part5" id="msg20"><polygon fill="#181818" points="1111.6094,719.0859,1121.6094,723.0859,1111.6094,727.0859,1115.6094,723.0859" style="stroke:#181818;stroke-width:1;"/><line style="stroke:#181818;stroke-width:1;" x1="705.5938" x2="1117.6094" y1="723.0859" y2="723.0859"/><text fill="#000000" font-family="Consolas" font-size="13" lengthAdjust="spacing" textLength="79.9868" x="712.5938" y="718.02">crear(datos)</text></g><g class="message" data-entity-1="part4" data-entity-2="part8" id="msg21"><polygon fill="#181818" points="1418.9683,748.2188,1428.9683,752.2188,1418.9683,756.2188,1422.9683,752.2188" style="stroke:#181818;stroke-width:1;"/><line style="stroke:#181818;stroke-width:1;" x1="705.5938" x2="1424.9683" y1="752.2188" y2="752.2188"/><text fill="#000000" font-family="Consolas" font-size="13" lengthAdjust="spacing" textLength="246.2319" x="712.5938" y="747.1528">registrar('CREAR_MATERIA', id, datos)</text></g><g class="message" data-entity-1="part4" data-entity-2="part2" id="msg22"><polygon fill="#181818" points="276.2856,777.3516,266.2856,781.3516,276.2856,785.3516,272.2856,781.3516" style="stroke:#181818;stroke-width:1;"/><line style="stroke:#181818;stroke-width:1;stroke-dasharray:2,2;" x1="270.2856" x2="704.5938" y1="781.3516" y2="781.3516"/><text fill="#000000" font-family="Consolas" font-size="13" lengthAdjust="spacing" textLength="140.5879" x="282.2856" y="776.2856">redirigirConMensaje()</text></g><g class="message" data-entity-1="part2" data-entity-2="part1" id="msg23"><polygon fill="#181818" points="68.54,806.4844,58.54,810.4844,68.54,814.4844,64.54,810.4844" style="stroke:#181818;stroke-width:1;"/><line style="stroke:#181818;stroke-width:1;stroke-dasharray:2,2;" x1="62.54" x2="264.2856" y1="810.4844" y2="810.4844"/><text fill="#000000" font-family="Consolas" font-size="13" lengthAdjust="spacing" textLength="183.7456" x="74.54" y="805.4185">mostrarListadoActualizado()</text></g><g class="message" data-entity-1="part1" data-entity-2="part2" id="msg24"><polygon fill="#181818" points="253.2856,835.6172,263.2856,839.6172,253.2856,843.6172,257.2856,839.6172" style="stroke:#181818;stroke-width:1;"/><line style="stroke:#181818;stroke-width:1;" x1="57.54" x2="259.2856" y1="839.6172" y2="839.6172"/><text fill="#000000" font-family="Consolas" font-size="13" lengthAdjust="spacing" textLength="109.478" x="64.54" y="834.5513">editarMateria(id)</text></g><g class="message" data-entity-1="part2" data-entity-2="part4" id="msg25"><polygon fill="#181818" points="693.5938,864.75,703.5938,868.75,693.5938,872.75,697.5938,868.75" style="stroke:#181818;stroke-width:1;"/><line style="stroke:#181818;stroke-width:1;" x1="265.2856" x2="699.5938" y1="868.75" y2="868.75"/><text fill="#000000" font-family="Consolas" font-size="13" lengthAdjust="spacing" textLength="46.9663" x="272.2856" y="863.6841">edit(id)</text></g><g class="message" data-entity-1="part4" data-entity-2="part5" id="msg26"><polygon fill="#181818" points="1111.6094,893.8828,1121.6094,897.8828,1111.6094,901.8828,1115.6094,897.8828" style="stroke:#181818;stroke-width:1;"/><line style="stroke:#181818;stroke-width:1;" x1="705.5938" x2="1117.6094" y1="897.8828" y2="897.8828"/><text fill="#000000" font-family="Consolas" font-size="13" lengthAdjust="spacing" textLength="139.5088" x="712.5938" y="892.8169">buscarOEncontrar(id)</text></g><g class="message" data-entity-1="part4" data-entity-2="part6" id="msg27"><polygon fill="#181818" points="1206.1304,923.0156,1216.1304,927.0156,1206.1304,931.0156,1210.1304,927.0156" style="stroke:#181818;stroke-width:1;"/><line style="stroke:#181818;stroke-width:1;" x1="705.5938" x2="1212.1304" y1="927.0156" y2="927.0156"/><text fill="#000000" font-family="Consolas" font-size="13" lengthAdjust="spacing" textLength="98.3633" x="712.5938" y="921.9497">listarCarreras()</text></g><g class="message" data-entity-1="part4" data-entity-2="part3" id="msg28"><polygon fill="#181818" points="388.2998,952.1484,378.2998,956.1484,388.2998,960.1484,384.2998,956.1484" style="stroke:#181818;stroke-width:1;"/><line style="stroke:#181818;stroke-width:1;stroke-dasharray:2,2;" x1="382.2998" x2="704.5938" y1="956.1484" y2="956.1484"/><text fill="#000000" font-family="Consolas" font-size="13" lengthAdjust="spacing" textLength="260.0317" x="394.2998" y="951.0825">renderizarFormulario(materia, carreras)</text></g><g class="message" data-entity-1="part3" data-entity-2="part1" id="msg29"><polygon fill="#181818" points="68.54,981.2813,58.54,985.2813,68.54,989.2813,64.54,985.2813" style="stroke:#181818;stroke-width:1;"/><line style="stroke:#181818;stroke-width:1;stroke-dasharray:2,2;" x1="62.54" x2="376.2998" y1="985.2813" y2="985.2813"/><text fill="#000000" font-family="Consolas" font-size="13" lengthAdjust="spacing" textLength="178.4834" x="74.54" y="980.2153">mostrarFormularioEdicion()</text></g><g class="message" data-entity-1="part1" data-entity-2="part3" id="msg30"><polygon fill="#181818" points="365.2998,1010.4141,375.2998,1014.4141,365.2998,1018.4141,369.2998,1014.4141" style="stroke:#181818;stroke-width:1;"/><line style="stroke:#181818;stroke-width:1;" x1="57.54" x2="371.2998" y1="1014.4141" y2="1014.4141"/><text fill="#000000" font-family="Consolas" font-size="13" lengthAdjust="spacing" textLength="145.1138" x="64.54" y="1009.3481">modificarDatos(datos)</text></g><g class="message" data-entity-1="part3" data-entity-2="part4" id="msg31"><polygon fill="#181818" points="693.5938,1039.5469,703.5938,1043.5469,693.5938,1047.5469,697.5938,1043.5469" style="stroke:#181818;stroke-width:1;"/><line style="stroke:#181818;stroke-width:1;" x1="377.2998" x2="699.5938" y1="1043.5469" y2="1043.5469"/><text fill="#000000" font-family="Consolas" font-size="13" lengthAdjust="spacing" textLength="125.7788" x="384.2998" y="1038.481">update(request, id)</text></g><g class="message" data-entity-1="part4" data-entity-2="part4" id="msg32"><line style="stroke:#181818;stroke-width:1;" x1="705.5938" x2="747.5938" y1="1072.6797" y2="1072.6797"/><line style="stroke:#181818;stroke-width:1;" x1="747.5938" x2="747.5938" y1="1072.6797" y2="1085.6797"/><line style="stroke:#181818;stroke-width:1;" x1="706.5938" x2="747.5938" y1="1085.6797" y2="1085.6797"/><polygon fill="#181818" points="716.5938,1081.6797,706.5938,1085.6797,716.5938,1089.6797,712.5938,1085.6797" style="stroke:#181818;stroke-width:1;"/><text fill="#000000" font-family="Consolas" font-size="13" lengthAdjust="spacing" textLength="148.5986" x="712.5938" y="1067.6138">validar(request, datos)</text></g><g class="message" data-entity-1="part4" data-entity-2="part5" id="msg33"><polygon fill="#181818" points="1111.6094,1110.8125,1121.6094,1114.8125,1111.6094,1118.8125,1115.6094,1114.8125" style="stroke:#181818;stroke-width:1;"/><line style="stroke:#181818;stroke-width:1;" x1="705.5938" x2="1117.6094" y1="1114.8125" y2="1114.8125"/><text fill="#000000" font-family="Consolas" font-size="13" lengthAdjust="spacing" textLength="130.0889" x="712.5938" y="1109.7466">actualizar(id, datos)</text></g><g class="message" data-entity-1="part4" data-entity-2="part8" id="msg34"><polygon fill="#181818" points="1418.9683,1139.9453,1428.9683,1143.9453,1418.9683,1147.9453,1422.9683,1143.9453" style="stroke:#181818;stroke-width:1;"/><line style="stroke:#181818;stroke-width:1;" x1="705.5938" x2="1424.9683" y1="1143.9453" y2="1143.9453"/><text fill="#000000" font-family="Consolas" font-size="13" lengthAdjust="spacing" textLength="302.5356" x="712.5938" y="1138.8794">registrar('ACTUALIZAR_MATERIA', id, cambios)</text></g><g class="message" data-entity-1="part4" data-entity-2="part2" id="msg35"><polygon fill="#181818" points="276.2856,1169.0781,266.2856,1173.0781,276.2856,1177.0781,272.2856,1173.0781" style="stroke:#181818;stroke-width:1;"/><line style="stroke:#181818;stroke-width:1;stroke-dasharray:2,2;" x1="270.2856" x2="704.5938" y1="1173.0781" y2="1173.0781"/><text fill="#000000" font-family="Consolas" font-size="13" lengthAdjust="spacing" textLength="140.5879" x="282.2856" y="1168.0122">redirigirConMensaje()</text></g><g class="message" data-entity-1="part2" data-entity-2="part1" id="msg36"><polygon fill="#181818" points="68.54,1198.2109,58.54,1202.2109,68.54,1206.2109,64.54,1202.2109" style="stroke:#181818;stroke-width:1;"/><line style="stroke:#181818;stroke-width:1;stroke-dasharray:2,2;" x1="62.54" x2="264.2856" y1="1202.2109" y2="1202.2109"/><text fill="#000000" font-family="Consolas" font-size="13" lengthAdjust="spacing" textLength="183.7456" x="74.54" y="1197.145">mostrarListadoActualizado()</text></g><g class="message" data-entity-1="part1" data-entity-2="part2" id="msg37"><polygon fill="#181818" points="253.2856,1227.3438,263.2856,1231.3438,253.2856,1235.3438,257.2856,1231.3438" style="stroke:#181818;stroke-width:1;"/><line style="stroke:#181818;stroke-width:1;" x1="57.54" x2="259.2856" y1="1231.3438" y2="1231.3438"/><text fill="#000000" font-family="Consolas" font-size="13" lengthAdjust="spacing" textLength="124.2554" x="64.54" y="1226.2778">eliminarMateria(id)</text></g><g class="message" data-entity-1="part2" data-entity-2="part4" id="msg38"><polygon fill="#181818" points="693.5938,1256.4766,703.5938,1260.4766,693.5938,1264.4766,697.5938,1260.4766" style="stroke:#181818;stroke-width:1;"/><line style="stroke:#181818;stroke-width:1;" x1="265.2856" x2="699.5938" y1="1260.4766" y2="1260.4766"/><text fill="#000000" font-family="Consolas" font-size="13" lengthAdjust="spacing" textLength="71.1191" x="272.2856" y="1255.4106">destroy(id)</text></g><g class="message" data-entity-1="part4" data-entity-2="part4" id="msg39"><line style="stroke:#181818;stroke-width:1;" x1="705.5938" x2="747.5938" y1="1289.6094" y2="1289.6094"/><line style="stroke:#181818;stroke-width:1;" x1="747.5938" x2="747.5938" y1="1289.6094" y2="1302.6094"/><line style="stroke:#181818;stroke-width:1;" x1="706.5938" x2="747.5938" y1="1302.6094" y2="1302.6094"/><polygon fill="#181818" points="716.5938,1298.6094,706.5938,1302.6094,716.5938,1306.6094,712.5938,1302.6094" style="stroke:#181818;stroke-width:1;"/><text fill="#000000" font-family="Consolas" font-size="13" lengthAdjust="spacing" textLength="200.7954" x="712.5938" y="1284.5435">autorizar('gestionar_materias')</text></g><g class="message" data-entity-1="part4" data-entity-2="part5" id="msg40"><polygon fill="#181818" points="1111.6094,1327.7422,1121.6094,1331.7422,1111.6094,1335.7422,1115.6094,1331.7422" style="stroke:#181818;stroke-width:1;"/><line style="stroke:#181818;stroke-width:1;" x1="705.5938" x2="1117.6094" y1="1331.7422" y2="1331.7422"/><text fill="#000000" font-family="Consolas" font-size="13" lengthAdjust="spacing" textLength="139.5088" x="712.5938" y="1326.6763">buscarOEncontrar(id)</text></g><path d="M211.458,1346.7422 L275.9009,1346.7422 L275.9009,1353.875 L265.9009,1363.875 L211.458,1363.875 L211.458,1346.7422" fill="#EEEEEE" style="stroke:#000000;stroke-width:1.5;"/><rect fill="none" height="183.6016" style="stroke:#000000;stroke-width:1.5;" width="1174.6196" x="211.458" y="1346.7422"/><text fill="#000000" font-family="Consolas" font-size="13" font-weight="bold" lengthAdjust="spacing" textLength="19.4429" x="226.458" y="1359.8091">alt</text><text fill="#000000" font-family="Consolas" font-size="11" font-weight="bold" lengthAdjust="spacing" textLength="186.9033" x="290.9009" y="1358.9526">[si tiene requisitos asociados]</text><g class="message" data-entity-1="part4" data-entity-2="part5" id="msg41"><polygon fill="#181818" points="1111.6094,1381.0078,1121.6094,1385.0078,1111.6094,1389.0078,1115.6094,1385.0078" style="stroke:#181818;stroke-width:1;"/><line style="stroke:#181818;stroke-width:1;" x1="705.5938" x2="1117.6094" y1="1385.0078" y2="1385.0078"/><text fill="#000000" font-family="Consolas" font-size="13" lengthAdjust="spacing" textLength="187.6177" x="712.5938" y="1379.9419">tieneRequisitosAsociados(id)</text></g><path d="M1046,1398.0078 L1046,1423.0078 L1201,1423.0078 L1201,1408.0078 L1191,1398.0078 L1046,1398.0078" fill="#FEFFDD" style="stroke:#181818;stroke-width:0.5;"/><path d="M1191,1398.0078 L1191,1408.0078 L1201,1408.0078 L1191,1398.0078" fill="#FEFFDD" style="stroke:#181818;stroke-width:0.5;"/><text fill="#000000" font-family="Consolas" font-size="13" lengthAdjust="spacing" textLength="134.1641" x="1052" y="1415.0747">FK materia_requisito</text><g class="message" data-entity-1="part4" data-entity-2="part2" id="msg42"><polygon fill="#181818" points="276.2856,1445.2734,266.2856,1449.2734,276.2856,1453.2734,272.2856,1449.2734" style="stroke:#181818;stroke-width:1;"/><line style="stroke:#181818;stroke-width:1;stroke-dasharray:2,2;" x1="270.2856" x2="704.5938" y1="1449.2734" y2="1449.2734"/><text fill="#000000" font-family="Consolas" font-size="13" lengthAdjust="spacing" textLength="276.6816" x="282.2856" y="1444.2075">error("Materia tiene requisitos asociados")</text></g><line style="stroke:#000000;stroke-width:1;stroke-dasharray:2,2;" x1="211.458" x2="1386.0776" y1="1458.2734" y2="1458.2734"/><text fill="#000000" font-family="Consolas" font-size="11" font-weight="bold" lengthAdjust="spacing" textLength="233.5781" x="216.458" y="1468.4839">[si tiene postulantes que la cursaron]</text><g class="message" data-entity-1="part4" data-entity-2="part7" id="msg43"><polygon fill="#181818" points="1311.2129,1489.2109,1321.2129,1493.2109,1311.2129,1497.2109,1315.2129,1493.2109" style="stroke:#181818;stroke-width:1;"/><line style="stroke:#181818;stroke-width:1;" x1="705.5938" x2="1317.2129" y1="1493.2109" y2="1493.2109"/><text fill="#000000" font-family="Consolas" font-size="13" lengthAdjust="spacing" textLength="204.4644" x="712.5938" y="1488.145">existePostulanteConMateria(id)</text></g><g class="message" data-entity-1="part4" data-entity-2="part2" id="msg44"><polygon fill="#181818" points="276.2856,1518.3438,266.2856,1522.3438,276.2856,1526.3438,272.2856,1522.3438" style="stroke:#181818;stroke-width:1;"/><line style="stroke:#181818;stroke-width:1;stroke-dasharray:2,2;" x1="270.2856" x2="704.5938" y1="1522.3438" y2="1522.3438"/><text fill="#000000" font-family="Consolas" font-size="13" lengthAdjust="spacing" textLength="325.9712" x="282.2856" y="1517.2778">error("Materia tiene postulantes que la cursaron")</text></g><g class="message" data-entity-1="part4" data-entity-2="part5" id="msg45"><polygon fill="#181818" points="1111.6094,1554.4766,1121.6094,1558.4766,1111.6094,1562.4766,1115.6094,1558.4766" style="stroke:#181818;stroke-width:1;"/><line style="stroke:#181818;stroke-width:1;" x1="705.5938" x2="1117.6094" y1="1558.4766" y2="1558.4766"/><text fill="#000000" font-family="Consolas" font-size="13" lengthAdjust="spacing" textLength="75.0547" x="712.5938" y="1553.4106">eliminar(id)</text></g><g class="message" data-entity-1="part4" data-entity-2="part8" id="msg46"><polygon fill="#181818" points="1418.9683,1583.6094,1428.9683,1587.6094,1418.9683,1591.6094,1422.9683,1587.6094" style="stroke:#181818;stroke-width:1;"/><line style="stroke:#181818;stroke-width:1;" x1="705.5938" x2="1424.9683" y1="1587.6094" y2="1587.6094"/><text fill="#000000" font-family="Consolas" font-size="13" lengthAdjust="spacing" textLength="219.667" x="712.5938" y="1582.5435">registrar('ELIMINAR_MATERIA', id)</text></g><g class="message" data-entity-1="part4" data-entity-2="part2" id="msg47"><polygon fill="#181818" points="276.2856,1612.7422,266.2856,1616.7422,276.2856,1620.7422,272.2856,1616.7422" style="stroke:#181818;stroke-width:1;"/><line style="stroke:#181818;stroke-width:1;stroke-dasharray:2,2;" x1="270.2856" x2="704.5938" y1="1616.7422" y2="1616.7422"/><text fill="#000000" font-family="Consolas" font-size="13" lengthAdjust="spacing" textLength="140.5879" x="282.2856" y="1611.6763">redirigirConMensaje()</text></g><g class="message" data-entity-1="part2" data-entity-2="part1" id="msg48"><polygon fill="#181818" points="68.54,1641.875,58.54,1645.875,68.54,1649.875,64.54,1645.875" style="stroke:#181818;stroke-width:1;"/><line style="stroke:#181818;stroke-width:1;stroke-dasharray:2,2;" x1="62.54" x2="264.2856" y1="1645.875" y2="1645.875"/><text fill="#000000" font-family="Consolas" font-size="13" lengthAdjust="spacing" textLength="183.7456" x="74.54" y="1640.8091">mostrarListadoActualizado()</text></g><?plantuml-src lLLBRjim4Dth58IxY0mu5_2YWABQXL4d3Tnaquqn5cc33KMwGyf8SfkUfHVhK28b-PjqqJg08tC-dFVcpSW-IRq5X9Aje7ZQeAaqpuqoo3vC9_uliQq75skeb9iQxUwW52mtsXe5DacWS1Gno7WfjRGEWHiSCB0C_4coyba1NzXWzhYy1ITGWgtjE_A6a_QfmR9sMTD3Kj2TQ1GRv0-Bw55R2uU9q4uw2iudUwQoUUwRSq0K62ARvxxvtbXNAT1Er1vR-jattqW7XGdXg_23m7kCxFfZ0sRCe2W45_XPM2UDZd3JOLBRlICLFMPIS_6SRc4ZDHJaE69hgGYa7IPaRzsW8chbAs1wjMao0Yu3D7lL-eQJCLF-4ZoTDpYnwvYyC4g9mYTD9HynApSAHaoRSeM2_ikTK2FcvDQC8brBiAQGm27StC56GO3gIXzWfI2DDRQuoRMcQinAupM2St_E3J5pn6610Z1GTyISDpgHTZmrfKNieSasFKTERCaDM9_bY9LOEOs45IrChyC-IYzG4WjAauO2xAWDNVhGOU9ZJW3lGdE2ufkqnq5paz0x2VW9dB4fzzynNQZIaYv4Yk9dHRBOrymEbAHvYiRBZPLy6UeViQ2mO-9MbIMdUuFVVAQqpZTCG3bApHGq5x0NOEAPA1O9eyy-SGBHO3gOztsj-_sB6DqqAmC6GvesVdHthOL8GJ36wHktuJGV-MAIqNR87YQBMNRbaOrOFwolLIvHRYJI2hiLsi8FaRwfqwnm5H7xUaQobBBJ5etJeMgzlJu-pUtNYQwN707fERqXxSko33UqislV8SW9bsVqM1ekrxAu9Cbgo_rWjhBh0pcfo_scjen0P1hJmnwUQNsMFpncyzdte_uNKAxa_rA0adHmIGESKADvIG-9-TibVr8oOHgT55emJx6qaeXZOMCRsqrbBrNjlcYzi-XSf_G1sZZ1p4vW5pFz4f-NxJrx8ny9QMO-y76XCZ_voegk_6tx9hQCjE9NJ56X1JIwZyAxZSFEwLxUUVlMRK6yfx0BTvxPJB7X_NwUbETaFhkTtHs8ynzeyWy0?></g></svg>